<svg width="200" height="200" viewBox="0 0 200 200" fill="none" xmlns="http://www.w3.org/2000/svg">
<g clip-path="url(#clip0_1_637)">
<mask id="mask0_1_637" style="mask-type:luminance" maskUnits="userSpaceOnUse" x="0" y="0" width="200" height="200">
<path d="M0.209183 0.803589H199.863V199.719H0.209183V0.803589Z" fill="white"/>
</mask>
<g mask="url(#mask0_1_637)">
<path d="M199.936 100.259C199.936 101.888 199.898 103.516 199.816 105.14C199.735 106.769 199.616 108.389 199.458 110.009C199.296 111.628 199.095 113.244 198.856 114.855C198.617 116.463 198.335 118.07 198.019 119.664C197.699 121.263 197.34 122.849 196.943 124.426C196.546 126.008 196.111 127.572 195.637 129.133C195.163 130.689 194.651 132.236 194.1 133.767C193.549 135.298 192.96 136.82 192.337 138.321C191.709 139.826 191.048 141.314 190.348 142.785C189.652 144.256 188.917 145.71 188.145 147.143C187.376 148.58 186.569 149.996 185.728 151.39C184.887 152.789 184.016 154.162 183.107 155.514C182.198 156.871 181.259 158.202 180.285 159.507C179.312 160.816 178.304 162.096 177.271 163.355C176.234 164.613 175.167 165.846 174.069 167.054C172.968 168.257 171.845 169.439 170.688 170.587C169.531 171.739 168.349 172.861 167.136 173.954C165.928 175.047 164.69 176.11 163.426 177.143C162.163 178.176 160.873 179.175 159.563 180.145C158.248 181.114 156.912 182.054 155.554 182.955C154.197 183.861 152.813 184.732 151.413 185.57C150.013 186.403 148.591 187.207 147.148 187.972C145.705 188.742 144.249 189.473 142.772 190.17C141.291 190.863 139.801 191.522 138.29 192.147C136.779 192.768 135.254 193.355 133.718 193.903C132.176 194.452 130.627 194.962 129.064 195.434C127.497 195.906 125.922 196.344 124.338 196.739C122.754 197.134 121.158 197.487 119.557 197.806C117.952 198.125 116.342 198.401 114.724 198.639C113.11 198.882 111.488 199.077 109.862 199.239C108.235 199.396 106.604 199.52 104.974 199.596C103.343 199.677 101.708 199.719 100.073 199.719C98.4375 199.719 96.8067 199.677 95.1716 199.596C93.5408 199.52 91.91 199.401 90.2835 199.239C88.6569 199.077 87.0347 198.882 85.4209 198.639C83.8029 198.401 82.1935 198.125 80.5926 197.806C78.9874 197.487 77.395 197.134 75.8069 196.739C74.223 196.344 72.6477 195.906 71.0852 195.434C69.5184 194.962 67.9688 194.452 66.4319 193.903C64.8907 193.355 63.3666 192.768 61.8554 192.147C60.3484 191.522 58.8542 190.863 57.377 190.17C55.8999 189.473 54.4399 188.742 52.9969 187.972C51.554 187.207 50.1366 186.403 48.7321 185.57C47.3318 184.732 45.9486 183.861 44.591 182.955C43.2334 182.054 41.8972 181.114 40.5823 180.145C39.2717 179.175 37.9824 178.176 36.7187 177.143C35.4551 176.11 34.2213 175.047 33.0089 173.954C31.7964 172.861 30.6139 171.739 29.457 170.587C28.3043 169.439 27.1773 168.257 26.0801 167.054C24.9829 165.846 23.9156 164.613 22.8782 163.355C21.8408 162.096 20.8333 160.816 19.86 159.507C18.8866 158.202 17.9474 156.871 17.0381 155.514C16.133 154.162 15.2579 152.789 14.4168 151.39C13.5758 149.996 12.7732 148.58 12.0005 147.143C11.2321 145.71 10.4978 144.256 9.79764 142.785C9.0975 141.314 8.43579 139.826 7.8125 138.321C7.18494 136.82 6.5958 135.298 6.04508 133.767C5.49436 132.236 4.98207 130.689 4.50819 129.133C4.03432 127.572 3.59887 126.008 3.20184 124.426C2.80481 122.849 2.4462 121.263 2.12602 119.664C1.81011 118.07 1.52834 116.463 1.28927 114.855C1.0502 113.244 0.849552 111.628 0.691594 110.009C0.529367 108.389 0.409832 106.769 0.328718 105.14C0.247605 103.516 0.209183 101.888 0.209183 100.259C0.209183 98.6352 0.247605 97.0068 0.328718 95.3827C0.409832 93.7543 0.529367 92.1344 0.691594 90.5145C0.849552 88.8946 1.0502 87.2789 1.28927 85.6675C1.52834 84.0561 1.81011 82.4533 2.12602 80.8589C2.4462 79.2602 2.80481 77.6743 3.20184 76.097C3.59887 74.5153 4.03432 72.9464 4.50819 71.3903C4.98207 69.8342 5.49436 68.2866 6.04508 66.756C6.5958 65.2211 7.18494 63.7033 7.8125 62.2024C8.43579 60.6973 9.0975 59.2092 9.79764 57.7381C10.4978 56.267 11.2321 54.8129 12.0005 53.3759C12.7732 51.943 13.5758 50.5272 14.4168 49.1284C15.2579 47.7339 16.133 46.3606 17.0381 45.0043C17.9474 43.6522 18.8866 42.3214 19.86 41.0162C20.8333 39.7066 21.8408 38.4269 22.8782 37.1684C23.9156 35.9099 24.9829 34.6769 26.0801 33.4694C27.1773 32.2662 28.3043 31.0842 29.457 29.9362C30.6139 28.784 31.7964 27.6616 33.0089 26.5689C34.2213 25.4762 35.4551 24.4133 36.7187 23.3801C37.9824 22.347 39.2717 21.3478 40.5823 20.3784C41.8972 19.409 43.2334 18.4694 44.591 17.568C45.9486 16.6624 47.3318 15.7908 48.7321 14.9532C50.1366 14.1157 51.554 13.3163 52.9969 12.5468C54.4399 11.7815 55.8999 11.0502 57.377 10.3529C58.8542 9.65563 60.3484 8.99662 61.8554 8.37587C63.3666 7.75087 64.8907 7.16839 66.4319 6.61992C67.9688 6.07145 69.5184 5.56124 71.0852 5.0893C72.6477 4.61311 74.223 4.17944 75.8069 3.78403C77.395 3.38862 78.9874 3.03148 80.5926 2.71685C82.1935 2.39798 83.8029 2.12162 85.4209 1.87927C87.0347 1.64117 88.6569 1.44134 90.2835 1.28403C91.91 1.12247 93.5408 1.00342 95.1716 0.922636C96.8067 0.846106 98.4375 0.803589 100.073 0.803589C101.708 0.803589 103.343 0.846106 104.974 0.922636C106.604 1.00342 108.235 1.12247 109.862 1.28403C111.488 1.44134 113.11 1.64117 114.724 1.87927C116.342 2.12162 117.952 2.39798 119.557 2.71685C121.158 3.03148 122.754 3.38862 124.338 3.78403C125.922 4.17944 127.497 4.61311 129.064 5.0893C130.627 5.56124 132.176 6.07145 133.718 6.61992C135.254 7.16839 136.779 7.75087 138.29 8.37587C139.801 8.99662 141.291 9.65563 142.772 10.3529C144.249 11.0502 145.705 11.7815 147.148 12.5468C148.591 13.3163 150.013 14.1157 151.413 14.9532C152.813 15.7908 154.197 16.6624 155.554 17.568C156.912 18.4694 158.248 19.409 159.563 20.3784C160.873 21.3478 162.163 22.347 163.426 23.3801C164.69 24.4133 165.928 25.4762 167.136 26.5689C168.349 27.6616 169.531 28.784 170.688 29.9362C171.845 31.0842 172.968 32.2662 174.069 33.4694C175.167 34.6769 176.234 35.9099 177.271 37.1684C178.304 38.4269 179.312 39.7066 180.285 41.0162C181.259 42.3214 182.198 43.6522 183.107 45.0043C184.016 46.3606 184.887 47.7339 185.728 49.1284C186.569 50.5272 187.376 51.943 188.145 53.3759C188.917 54.8129 189.652 56.267 190.348 57.7381C191.048 59.2092 191.709 60.6973 192.337 62.2024C192.96 63.7033 193.549 65.2211 194.1 66.756C194.651 68.2866 195.163 69.8342 195.637 71.3903C196.111 72.9464 196.546 74.5153 196.943 76.097C197.34 77.6743 197.699 79.2602 198.019 80.8589C198.339 82.4533 198.617 84.0561 198.856 85.6675C199.095 87.2789 199.296 88.8946 199.458 90.5145C199.616 92.1344 199.735 93.7543 199.816 95.3827C199.898 97.0068 199.936 98.6352 199.936 100.259Z" fill="#38B6FF"/>
</g>
<path d="M78.2787 109.622C77.3053 109.77 76.4857 110.259 75.7044 110.825C75.5806 110.91 75.4568 111.02 75.5038 111.199C76.665 110.906 80.1144 109.966 80.6395 108.958C79.8882 109.188 79.1154 109.562 78.2787 109.622Z" fill="#2B2B2B"/>
<path d="M74.8292 112.84C75.0171 113.031 75.1665 112.747 75.3245 112.649C76.174 112.126 76.7546 111.705 77.7237 111.271C76.46 111.084 75.1409 111.866 74.8292 112.84Z" fill="#2B2B2B"/>
<path d="M78.5775 108.07C78.1037 108.508 77.5102 108.775 76.9851 109.158C74.4664 111.144 78.4964 109.069 78.7782 108.172C78.8636 108.044 78.68 107.9 78.5775 108.07Z" fill="#2B2B2B"/>
<path d="M109.016 98.8606C108.35 99.4728 107.988 100.217 107.27 100.787C105.985 102.007 105.136 103.491 104.466 105.102C104.073 106.335 105.315 104.864 105.396 104.456C106.186 102.249 108.743 101.335 109.016 98.8606Z" fill="#2B2B2B"/>
<path d="M106.57 100.914C107.01 100.162 107.215 99.3367 107.223 98.4651C107.044 98.0272 106.694 99.0561 106.574 99.2134C105.896 100.804 104.683 102.058 103.838 103.546C102.246 106.139 106.404 101.386 106.57 100.914Z" fill="#2B2B2B"/>
<path d="M106.89 103.401C105.827 104.311 105.947 106.182 104.871 107.156C104.158 108.027 105.085 107.572 105.422 107.202C105.862 106.79 106.16 106.276 106.446 105.808C106.745 105.051 107.181 104.141 106.89 103.401Z" fill="#2B2B2B"/>
<path d="M91.4361 89.7109C89.6644 90.5995 88.0806 91.7688 87.6323 93.7968C87.611 93.8606 87.5213 93.9839 87.7519 94.0477C88.6612 92.3683 90.0914 91.0757 91.4874 89.8045C91.466 89.7662 91.4532 89.7322 91.4361 89.7109Z" fill="#2B2B2B"/>
<path d="M87.3975 92.7636C88.4221 91.4413 89.3229 90.3444 90.4799 89.205C88.96 89.6684 87.5555 91.1097 87.3975 92.7636Z" fill="#2B2B2B"/>
<path d="M88.9344 93.8096C89.959 92.8784 90.7616 91.5859 91.6112 90.472C91.5855 90.4465 91.5557 90.4337 91.5258 90.4082C90.5097 91.2841 88.6441 92.2832 88.9344 93.8096Z" fill="#2B2B2B"/>
<path d="M83.6322 102.109C82.8296 102.887 82.091 103.355 81.6897 104.596C83.3504 103.078 84.9684 101.977 86.4839 100.548C86.5779 100.459 86.7657 100.417 86.7102 100.196C85.6259 100.765 84.486 101.199 83.6322 102.109Z" fill="#2B2B2B"/>
<path d="M83.7645 100.289C83.2608 101.059 82.5009 101.735 82.3087 102.649C82.2618 102.84 82.4283 102.951 82.5478 102.776C83.4785 101.284 85.0879 100.255 85.9674 98.7755C85.105 99.1156 84.328 99.5536 83.7645 100.289Z" fill="#2B2B2B"/>
<path d="M97.4129 118.274C98.8559 117.19 99.5603 115.527 100.649 114.141C100.956 113.682 101.887 112.432 101.729 111.926C100.35 114.111 98.557 115.974 97.4129 118.274Z" fill="#2B2B2B"/>
<path d="M99.5816 119.15C101.251 118.355 102.843 116.229 103.629 114.524C101.955 115.697 101.332 117.742 99.6457 118.907C99.5859 118.946 99.4407 119.001 99.5816 119.15Z" fill="#2B2B2B"/>
<path d="M96.2944 117.334C96.7298 117.262 97.0799 116.161 97.4086 115.791C97.8484 114.8 100.457 112.568 100.137 111.726C98.6296 113.469 97.1781 115.196 96.2944 117.334Z" fill="#2B2B2B"/>
<path d="M81.1817 102.245C81.1305 102.372 81.0878 102.526 81.2287 102.674C82.1679 101.624 82.9747 100.497 83.9993 99.4898C82.4667 99.4643 81.7281 101.054 81.1817 102.241V102.245Z" fill="#2B2B2B"/>
<path d="M115.634 94.7024C114.592 96.2543 114.771 97.0281 116.146 95.2169C116.808 94.0689 119.173 92.0919 118.759 90.7781C118.05 92.3725 116.466 93.21 115.634 94.7024Z" fill="#2B2B2B"/>
<path d="M116.927 90.7142C116.855 90.744 116.782 90.7482 116.769 90.778C116.428 91.3605 115.954 91.8367 115.493 92.3256C114.297 93.278 112.795 98.0484 115.155 94.2304C115.659 93.0314 116.897 92.062 116.927 90.7142Z" fill="#2B2B2B"/>
<path d="M115.096 90.6462C114.524 91.96 113.435 92.9847 112.709 94.2389C111.565 97.1513 114.511 92.4405 114.852 92.0323C115.07 91.7134 115.484 90.9098 115.096 90.6462Z" fill="#2B2B2B"/>
<path d="M101.955 84.1156C101.507 84.0008 100.837 84.9447 100.692 85.1785C100.465 85.5739 100.081 86.8239 100.615 86.4966C100.986 85.6802 101.627 84.9064 101.955 84.1156Z" fill="#2B2B2B"/>
<mask id="mask1_1_637" style="mask-type:luminance" maskUnits="userSpaceOnUse" x="17" y="52" width="166" height="97">
<path d="M17.2046 52.0026H182.556V148.197H17.2046V52.0026Z" fill="white"/>
</mask>
<g mask="url(#mask1_1_637)">
<path d="M173.659 147.606C173.651 147.475 173.617 147.343 173.583 147.215C173.484 146.888 173.348 146.582 173.156 146.301C172.528 145.37 171.849 144.477 170.996 143.729C169.997 142.853 168.946 142.049 167.858 141.288C166.402 140.272 164.912 139.311 163.409 138.363C161.907 137.415 160.378 136.509 158.824 135.655C156.421 134.333 154.03 132.989 151.563 131.786C150.777 131.403 149.991 131.003 149.219 130.595C147.729 129.8 146.205 129.073 144.779 128.172C143.963 127.649 143.178 127.088 142.491 126.403C141.56 125.489 141.001 124.388 140.856 123.091C140.779 122.445 140.723 121.794 140.655 121.148C140.642 120.995 140.629 120.838 140.599 120.68C140.561 120.51 140.339 120.442 140.232 120.583C140.096 120.757 139.976 120.948 139.865 121.144C139.344 122.045 138.708 122.853 137.884 123.503C136.591 124.532 134.866 125.055 133.201 124.89C130.439 124.613 127.882 122.432 125.034 123.168C124.244 123.367 123.455 123.725 122.631 123.733C121.888 123.746 121.145 123.763 120.402 123.793C119.536 123.822 118.703 123.64 117.888 123.367C117.286 123.168 116.748 122.844 116.282 122.402C115.894 122.028 115.535 121.624 115.194 121.208C115.04 121.012 114.921 120.795 114.848 120.557C114.549 119.6 114.455 118.627 114.643 117.632C114.784 116.901 115.19 116.348 115.582 115.74C115.809 115.391 115.77 115.06 115.45 114.804C115.04 114.481 114.485 114.324 114.041 114.035C113.58 113.733 113.157 113.367 112.807 112.938C111.911 111.841 111.535 110.621 112.018 109.235C112.466 107.951 113.354 107.185 114.728 107.241C114.933 107.249 115.134 107.249 115.335 107.249C115.467 107.245 115.621 107.253 115.693 107.117C115.774 106.973 115.672 106.862 115.591 106.756C115.394 106.509 115.194 106.267 115.002 106.02C114.579 105.489 114.485 104.881 114.652 104.239C115.015 102.866 115.877 101.973 117.26 101.603C118.276 101.335 119.271 101.463 120.244 101.82C120.718 101.994 121.166 102.347 121.649 102.47C122.084 102.581 122.379 102.36 122.567 101.99C122.865 101.412 123.002 100.804 123.391 100.264C123.766 99.7449 124.261 99.3198 124.821 99.0052C125.013 98.8946 125.209 98.7756 125.418 98.6948C126.964 98.0698 128.454 98.1931 129.863 99.0902C130.674 99.6046 131.297 100.31 131.839 101.088C132.262 101.696 132.68 102.309 133.094 102.925C133.957 104.201 135.071 105.183 136.463 105.855C137.005 106.118 137.543 106.399 138.085 106.675C139.378 107.326 140.429 108.253 141.235 109.452C141.56 109.936 141.884 110.425 142.243 110.884C143.007 111.867 143.366 113.006 143.899 114.107C144.121 114.562 144.454 114.924 144.915 115.149C145.359 115.361 145.803 115.583 146.26 115.774C147.528 116.301 148.805 116.799 150.068 117.338C151.597 117.993 153.146 118.597 154.717 119.145C156.395 119.732 158.064 120.344 159.695 121.046C161.305 121.735 162.897 122.475 164.506 123.172C165.847 123.754 167.196 124.316 168.545 124.877C170.018 125.493 171.491 126.105 172.964 126.718C173.442 126.918 173.933 127.092 174.398 127.309C175.704 127.917 177.028 128.478 178.373 129.001C179.295 129.362 180.251 129.609 181.216 129.834C181.596 129.924 181.976 129.915 182.351 129.787C182.437 129.762 182.522 129.715 182.531 129.613C182.539 129.515 182.48 129.439 182.407 129.384C182.189 129.222 181.946 129.111 181.681 129.035C181.404 128.954 181.122 128.878 180.836 128.81C179.653 128.525 178.501 128.146 177.378 127.674C175.41 126.845 173.442 126.016 171.482 125.166C169.523 124.316 167.567 123.457 165.625 122.572C164.152 121.896 162.701 121.182 161.241 120.485C159.209 119.515 157.112 118.708 155.016 117.887C153.825 117.424 152.634 116.943 151.464 116.42C150.273 115.889 149.125 115.276 148.023 114.566C147.174 114.014 146.346 113.44 145.577 112.781C144.574 111.926 143.797 110.884 143.08 109.792C142.721 109.248 142.367 108.699 141.983 108.176C141.3 107.236 140.446 106.48 139.425 105.923C138.734 105.544 138.029 105.196 137.325 104.838C136.202 104.269 135.254 103.495 134.588 102.411C134.285 101.913 133.978 101.416 133.671 100.918C133.355 100.404 133.034 99.8895 132.655 99.4133C132.018 98.614 131.267 97.9465 130.341 97.4915C130.072 97.3725 129.807 97.2449 129.538 97.1387C129.372 97.0706 129.197 97.0281 129.022 96.9898C126.861 96.5264 124.966 97.0834 123.301 98.4864C122.908 98.8181 122.618 99.239 122.392 99.6939C122.246 99.983 122.059 100.974 121.636 100.838C121.401 100.761 121.175 100.668 120.944 100.574C119.403 99.9448 117.862 99.966 116.351 100.634C115.826 100.867 115.365 101.174 114.98 101.552C114.891 100.889 114.797 100 115.049 99.9363C115.928 99.7024 116.782 99.273 117.448 98.6438C118.161 97.972 118.537 97.0876 119.271 96.4116C120.163 95.5953 121.089 94.6769 121.072 93.3802C121.051 92.0579 121.192 90.4465 120.441 89.2815C119.847 88.1591 119.215 87.0451 118.349 86.1097C117.99 85.7143 117.939 85.3274 118.08 84.8257C118.72 83.0613 118.383 81.0715 119.203 79.3793C120.15 77.5638 120.974 75.6846 121.679 73.7713C123.668 68.8053 118.105 65.608 114.558 63.3759C110.22 60.7271 105.575 58.4779 100.675 57.0876C100.077 56.9346 99.1248 56.6157 98.557 56.5264C95.2655 55.6506 91.9228 56.165 88.7893 57.3895C84.644 58.3716 80.631 59.8215 76.7802 61.671C72.4129 63.2739 68.1139 66.2415 63.2727 65.5953C62.0987 65.4847 61.2235 64.6599 60.1904 64.1667C56.8776 62.4405 53.3214 61.1948 50.222 59.0562C47.4257 57.1387 44.9838 54.6472 41.6453 53.6693C40.4201 53.3121 39.2973 52.7041 38.1617 52.1302C37.3548 52.0026 38.23 52.9635 38.499 53.1336C40.0529 54.3963 41.9954 55.0766 43.4469 56.4839C47.4172 60.3104 52.9158 62.7637 55.8615 67.5298C57.0996 70.608 55.3791 73.75 54.4783 76.6795C53.6031 79.9703 51.1697 82.5426 49.5133 85.3784C51.7119 83.7968 53.6074 81.5009 54.8455 79.0434C56.5702 75.5103 58.4315 71.8453 61.6504 69.4388C62.3549 69.1455 61.4498 71.1267 61.3559 71.3733C60.7454 72.6446 60.6131 74.0604 60.3227 75.4252C59.93 77.2152 60.2886 79.0349 60.6515 80.8036C60.8436 81.5902 61.6803 84.7535 62.3634 84.9065C61.1552 81.807 61.057 76.216 62.5299 73.2356C62.4701 78.4609 64.5705 83.4652 68.4042 87.0451C68.8397 87.4193 70.4534 89.0307 70.9273 88.7883C66.3337 84.8002 63.2044 77.7934 65.3646 71.773C67.5248 66.8921 73.1216 64.881 77.8432 63.2909C90.1383 58.0315 98.8858 55.7696 111.04 63.1038C114.592 65.6038 120.902 67.6063 120.432 72.8699C120.137 74.8045 119.425 76.6922 118.519 78.4184C118.357 78.6012 118.225 78.2909 118.157 78.1718C117.798 77.483 117.32 76.8368 116.709 76.3606C114.532 74.898 113.563 78.1208 113.149 79.7067C112.551 81.4839 113.802 83.0188 114.425 84.5961C114.818 85.472 115.202 86.3436 115.45 87.2747C115.599 87.8487 115.689 87.9465 114.916 88.0613C109.563 88.716 102.561 80.608 105.375 75.574C106.903 72.1982 109.448 69.5154 112.462 67.3767C112.632 67.1769 113.115 67.0111 113.017 66.7177C109.699 67.6829 107.014 70.4932 104.914 73.1846C104.051 74.1837 103.646 74.4303 103.629 72.8657C103.33 70.0681 103.855 67.1684 104 64.4856C102.519 66.6029 102.532 69.6939 102.561 72.2449C102.613 72.8062 102.668 73.4184 102.305 73.8904C102.066 74.1114 101.938 73.7245 101.857 73.5502C100.555 70.2084 100.615 66.5009 100.337 63.0017C99.5816 65.4677 99.4151 68.2739 99.5987 70.8887C100.423 74.5664 99.889 77.1046 96.0212 77.6233C92.8919 78.2739 91.0818 81.2586 89.9846 84.0307C89.4851 84.949 90.1298 85.8121 89.0412 86.4201C88.0635 87.0834 87.2994 87.9677 86.4754 88.7926C85.0282 90.1063 84.8788 92.0196 84.4134 93.8011C84.2256 94.5536 83.7688 94.9958 83.0473 95.2637C81.8904 95.6888 80.8701 96.3563 79.9821 97.2109C77.7877 99.0562 79.3972 101.259 77.3566 101.577C71.0212 103.057 70.1375 109.439 72.05 114.779C73.3905 118.163 74.2743 117.415 73.1472 121.416C73.1173 121.531 73.0789 121.667 73.2411 121.756C73.5485 121.025 74.6756 118.814 74.7567 120.914C74.9573 122.173 75.2647 123.618 76.3021 124.447C76.0886 123.359 75.4141 122.215 75.7813 121.046C76.3106 119.741 77.5102 121.654 77.6042 122.343C77.7707 122.827 78.0439 125.306 78.616 125.191C77.9585 120.642 79.8967 125.272 81.8904 125.03C79.6747 123.333 78.3683 120.838 76.4686 118.818C74.1206 116.161 72.3233 112.483 72.5965 108.882C72.7075 108.478 72.9252 108.197 73.382 108.125C74.0394 108.023 74.6158 107.725 75.175 107.39C76.3149 106.701 77.4121 105.986 78.3 104.975C78.5989 104.63 78.744 104.634 79.0984 104.864C80.5755 106.186 81.2884 108.193 82.7741 109.549C85.5149 112.5 88.6527 115.162 90.6848 118.691C90.8683 119.005 90.8598 119.06 90.5652 119.256C90.1341 119.549 89.7456 119.898 89.4126 120.289C88.1489 121.896 86.834 123.491 84.9599 124.396C87.3036 123.997 88.8661 122.079 90.4542 120.476C91.3294 119.715 91.291 119.775 91.6966 120.821C91.7563 120.978 91.7307 121.118 91.5941 121.237C90.4756 122.279 89.8309 123.767 88.4349 124.524C88.1105 124.702 88.5032 124.8 88.6612 124.656C89.8864 124.116 90.6933 122.98 91.6709 122.113C93.1139 121.441 91.5215 126.509 86.8084 125.532C87.0816 125.94 89.2973 126.186 88.1446 126.654C86.0528 127.36 83.82 127.139 81.6641 127.194C79.8028 127.185 77.57 126.225 75.9648 125.349C71.2987 124.077 68.6689 122.517 63.849 118.172C59.1829 113.971 54.3716 109.919 50.5806 104.911C48.7193 102.428 48.0874 98.9967 48.7491 95.9779C49.5816 92.3853 51.7632 89.1667 54.1325 86.3861C54.474 86.131 57.0056 82.347 55.6993 83.4397C53.1079 86.1097 50.1708 88.529 48.3991 91.8623C47.2421 93.4567 45.5772 94.5749 43.639 95.0128C34.8617 96.7645 26.4771 91.5179 18.8354 87.8827C18.5792 87.7552 18.3274 87.6191 18.0413 87.5808C17.2131 87.5128 17.2729 88.4482 17.6827 88.9329C19.7789 92.33 24.6627 93.733 28.0908 95.3699C33.598 98.4524 39.3699 100.748 45.21 103.121C48.318 104.758 49.8975 107.819 52.2071 110.302C56.5958 114.911 61.8169 118.618 66.7862 122.555C68.5451 123.899 70.082 125.06 72.2592 125.68C74.2401 126.233 76.2551 126.594 78.1293 127.47C80.0888 128.338 82.1721 129.184 84.3451 128.822C86.1937 128.516 88.0379 128.121 89.7712 127.398C91.5599 126.65 93.5622 125.515 93.5792 123.316C93.6134 122.917 93.2548 121.782 94.0147 121.998C94.6337 122.173 95.2229 122.666 95.9016 122.836C96.5804 123.006 97.2806 123.027 97.9636 122.866C98.5912 122.717 99.3169 122.147 99.8677 121.824C101.191 121.05 102.801 120.213 103.693 118.929C104.491 117.785 105.298 116.433 105.755 115.115C106.015 114.362 106.084 113.627 106.071 112.836C106.066 112.734 105.981 111.229 106.007 111.225C107.3 110.991 108.427 110.748 109.623 110.166C110.092 109.936 110.472 109.698 110.801 109.422C110.609 110.14 110.596 110.893 110.78 111.671C111.151 113.253 112.043 114.473 113.439 115.327C113.653 115.455 113.858 115.595 114.054 115.74C114.152 115.812 114.169 115.935 114.109 116.042C114.058 116.144 113.998 116.237 113.926 116.322C113.328 117.045 113.068 117.895 113.046 118.814C112.999 120.417 113.448 121.871 114.451 123.138C114.916 123.725 115.48 124.192 116.146 124.558C117.234 125.157 118.396 125.459 119.638 125.438C120.402 125.425 121.162 125.353 121.926 125.31C122.4 125.285 122.87 125.251 123.344 125.238C125 125.191 126.469 126.037 127.912 126.747C129.098 127.33 130.379 127.734 131.707 127.827C133.884 127.976 135.98 127.577 138.128 128.138C139.528 128.508 140.868 129.026 142.17 129.639C144.416 130.693 146.474 132.066 148.553 133.406C149.799 134.209 151.046 135.013 152.352 135.723C154.009 136.624 155.669 137.521 157.326 138.431C158.291 138.963 159.251 139.503 160.199 140.06C161.808 141.003 163.414 141.956 165.006 142.925C165.719 143.359 166.436 143.78 167.149 144.205C168.191 144.826 169.245 145.434 170.21 146.169C170.799 146.62 171.371 147.092 171.948 147.56C172.157 147.73 172.374 147.891 172.626 147.997C172.767 148.057 172.921 148.112 173.07 148.138C173.463 148.202 173.689 147.993 173.659 147.611V147.606ZM114.942 83.7586C114.545 82.5511 113.55 81.3606 113.99 80.0341C114.357 79.0094 114.69 77.8742 115.441 77.0791C116.641 76.3436 117.858 79.0519 117.802 80.0256C117.841 81.4839 117.324 86.8623 116.329 87.5426C115.907 86.2628 115.501 84.983 114.942 83.7628V83.7586ZM93.6347 80.7654C93.9933 80.438 94.3776 79.8895 94.9197 80.2254C96.0041 80.7951 96.3029 81.3436 96.1151 82.5426C95.8034 83.9924 95.1417 86.6412 93.2591 86.5051C91.2654 85.7526 90.4158 85.574 91.7606 83.4184C92.1363 82.4108 92.8919 81.5902 93.639 80.7654H93.6347ZM77.9969 104.179C76.7503 105.595 75.1238 106.837 73.2795 107.334C73.16 107.338 73.0789 107.27 73.0917 107.151C73.1771 106.076 73.5015 105.123 74.4407 104.473C75.4653 103.797 76.6095 103.053 77.8689 103.805C77.9201 103.822 78.172 104.026 77.9969 104.179ZM82.0056 98.108C81.2287 98.8223 80.4645 99.5494 79.9052 100.468C79.7857 100.672 79.5466 100.561 79.6064 100.34C79.5125 99.4176 82.3045 96.4584 83.2437 96.9048C83.2223 97.313 82.2789 97.7381 82.0056 98.108ZM103.795 116.509L103.812 116.514C102.976 118.618 101.033 119.821 99.2444 121.033C96.1621 122.411 94.2324 120.748 92.4522 118.333C91.0178 116.463 89.2632 114.86 87.9226 112.917C86.5266 111.003 84.9343 109.277 83.1156 107.759C81.5488 106.543 79.8284 104.107 80.123 102.117C80.8658 100.17 83.3632 97.0536 85.6515 97.2407C86.881 97.2449 87.3122 98.6012 88.2428 99.1795C88.7765 99.6004 89.3016 100.017 89.8566 100.404C93.8311 103.325 98.3009 105.655 101.951 108.984C104.448 111.14 105.785 113.44 103.795 116.509ZM108.654 108.882C107.684 109.248 105.943 109.596 104.952 109.12C99.0608 106.297 94.1556 101.569 88.8832 97.7296C85.5191 95.2849 85.1819 93.5417 87.4658 90.0341C88.5587 88.4779 90.7659 87.0366 92.7254 87.6276C96.6744 88.9456 100.06 91.4839 103.906 93.0613C107.057 94.6854 110.391 96.4924 112.675 99.2432C113.593 100.349 113.443 101.765 112.982 103.027C112.205 105.145 110.933 108.023 108.654 108.882ZM115.057 98.3079C113.307 98.4864 112.129 96.7262 110.946 95.6973C108.111 92.5851 103.099 92.1812 100.175 89.5196C100.973 88.4354 102.749 87.5 102.57 86.0077C102.344 86.0842 102.271 86.2883 102.173 86.4669C101.58 87.5511 100.453 88.1888 99.8719 89.2815C99.8079 89.4133 99.6713 89.4346 99.5389 89.3495C99.0181 88.6905 101.328 87.262 101.473 86.5051C101.409 86.0077 99.1633 88.2866 99.1206 88.6438C98.9541 88.9584 98.8687 88.9754 98.5613 88.8053C97.4599 88.1378 96.0468 87.8827 95.4192 86.654C95.2698 86.4159 95.5857 86.1863 95.6839 85.9694C96.4054 84.7917 96.7512 83.512 96.7982 82.1344C97.0372 81.0757 95.3637 80.0681 96.0639 79.762C98.7961 79.1412 101.545 80.3742 103.859 81.739C104.086 81.8708 104.299 82.0154 104.431 82.2577C106.165 85.0171 108.799 87.5723 111.958 88.5715C113.17 88.8436 114.417 89.2007 115.638 88.7883C116.142 88.6182 116.705 88.7628 117 88.2101C117.098 88.057 117.243 88.04 117.405 88.1506C119.228 89.4771 120.667 92.0196 119.647 94.2007C118.882 95.0766 118.02 95.8802 117.448 96.9091C116.966 97.7679 115.996 98.1931 115.057 98.3079Z" fill="#2B2B2B"/>
</g>
<path d="M127.284 119.094C127.587 119.668 127.877 120.251 128.202 120.816C128.607 121.522 129.145 122.117 129.794 122.619C130.618 123.261 131.536 123.423 132.531 123.163C133.21 122.985 133.837 122.67 134.366 122.202C135.045 121.603 135.647 120.931 135.848 120.008C136.177 118.461 136.872 117.105 137.94 115.935C138.234 115.616 138.422 115.234 138.572 114.83C138.657 114.6 138.742 114.366 138.836 114.137C139.08 113.533 139.105 112.912 138.926 112.292C138.567 111.05 137.82 110.106 136.68 109.485C136.048 109.133 135.365 109.039 134.657 109.077C133.709 109.128 132.783 109.307 131.886 109.622C131.002 109.932 130.102 110.042 129.171 109.991C128.522 109.957 127.865 109.966 127.216 109.996C126.174 110.042 125.307 110.463 124.658 111.297C124.522 111.475 124.402 111.667 124.334 111.879C124.078 112.679 124.078 113.465 124.419 114.243C124.59 114.634 124.808 115.004 125.081 115.332C125.448 115.761 125.751 116.233 126.016 116.726C126.447 117.513 126.861 118.308 127.284 119.099V119.094Z" fill="#2B2B2B"/>
<path d="M124.496 103.474C124.799 104.269 125.162 105.038 125.329 105.884C125.423 106.344 125.734 106.692 126.174 106.875C126.661 107.071 127.173 107.151 127.698 107.028C128.548 106.833 129.295 106.441 129.927 105.833C130.409 105.37 130.733 104.817 130.87 104.162C131.109 102.959 130.793 101.939 129.863 101.131C129.645 100.94 129.38 100.804 129.197 100.685C128.94 100.574 128.761 100.48 128.573 100.412C127.523 100.038 126.498 100.098 125.499 100.6C124.718 100.986 124.018 102.037 124.394 103.155C124.432 103.261 124.458 103.372 124.496 103.474Z" fill="#2B2B2B"/>
<path d="M116.133 119.218C116.415 120.434 117.149 121.288 118.259 121.833C118.379 121.892 118.494 121.96 118.622 122.015C119.834 122.526 121.179 122.236 122.076 121.267C123.245 120 123.301 117.632 122.187 116.301C122.144 116.25 122.097 116.199 122.054 116.152C121.504 115.57 121.034 115.463 120.3 115.782C119.924 115.948 119.54 116.054 119.147 116.148C118.601 116.276 118.054 116.412 117.516 116.569C116.786 116.79 116.364 117.317 116.146 118.023C116.022 118.418 116.043 118.818 116.133 119.218Z" fill="#2B2B2B"/>
<path d="M120.257 102.67C118.648 101.777 116.884 102.432 116.27 104.154C115.958 105.021 116.167 105.85 116.842 106.475C117.094 106.709 117.38 106.879 117.76 107.066C117.866 107.109 118.05 107.202 118.238 107.262C118.925 107.479 119.6 107.717 120.266 107.989C120.803 108.206 121.371 108.359 121.965 108.359C123.023 108.363 123.566 107.334 123.339 106.565C123.237 106.216 123.083 105.897 122.865 105.608C122.404 104.975 121.939 104.345 121.469 103.72C121.141 103.282 120.731 102.938 120.257 102.67Z" fill="#2B2B2B"/>
<path d="M114.233 108.861C113.435 109.354 112.982 110.098 113.017 111.042C113.064 112.19 113.661 113.019 114.711 113.503C115.155 113.707 115.629 113.712 116.103 113.648C116.756 113.559 117.401 113.593 118.041 113.729C118.216 113.763 118.396 113.792 118.575 113.801C119.083 113.835 119.561 113.72 119.992 113.457C120.641 113.053 120.748 112.385 120.278 111.79C120.069 111.522 119.796 111.322 119.536 111.114C118.865 110.587 118.186 110.068 117.52 109.541C117.273 109.345 117.012 109.171 116.611 108.963C116.53 108.929 116.334 108.818 116.12 108.75C115.48 108.533 114.831 108.491 114.233 108.861Z" fill="#2B2B2B"/>
</g>
<defs>
<clipPath id="clip0_1_637">
<rect width="200" height="200" fill="white"/>
</clipPath>
</defs>
</svg>
